<?xml version="1.0" encoding="UTF-8" standalone="no"?>
<svg
   xmlns:dc="http://purl.org/dc/elements/1.1/"
   xmlns:cc="http://creativecommons.org/ns#"
   xmlns:rdf="http://www.w3.org/1999/02/22-rdf-syntax-ns#"
   xmlns:svg="http://www.w3.org/2000/svg"
   xmlns="http://www.w3.org/2000/svg"
   xmlns:sodipodi="http://sodipodi.sourceforge.net/DTD/sodipodi-0.dtd"
   xmlns:inkscape="http://www.inkscape.org/namespaces/inkscape"
   height="448pt"
   viewBox="0 -159 448.088 448"
   width="448pt"
   id="svg2"
   version="1.1"
   inkscape:version="0.91 r13725"
   sodipodi:docname="horizontal.svg">
  <metadata
     id="metadata14">
    <rdf:RDF>
      <cc:Work
         rdf:about="">
        <dc:format>image/svg+xml</dc:format>
        <dc:type
           rdf:resource="http://purl.org/dc/dcmitype/StillImage" />
      </cc:Work>
    </rdf:RDF>
  </metadata>
  <defs
     id="defs12" />
  <sodipodi:namedview
     pagecolor="#ffffff"
     bordercolor="#666666"
     borderopacity="1"
     objecttolerance="10"
     gridtolerance="10"
     guidetolerance="10"
     inkscape:pageopacity="0"
     inkscape:pageshadow="2"
     inkscape:window-width="1871"
     inkscape:window-height="1056"
     id="namedview10"
     showgrid="false"
     inkscape:zoom="1.4931083"
     inkscape:cx="229.09947"
     inkscape:cy="280"
     inkscape:window-x="49"
     inkscape:window-y="24"
     inkscape:window-maximized="1"
     inkscape:current-layer="svg2" />
  <path
     d="m289.277344 65.277344c0 36.027344-29.207032 65.230468-65.234375 65.230468-36.027344 0-65.230469-29.203124-65.230469-65.230468s29.203125-65.230469 65.230469-65.230469c36.027343 0 65.234375 29.203125 65.234375 65.230469zm0 0"
     id="path4"
     style="fill:#ececec" />
  <path
     d="m382.855469.046875c-36.027344 0-65.230469 29.203125-65.230469 65.230469s29.203125 65.230468 65.230469 65.230468c36.027343 0 65.234375-29.203124 65.234375-65.230468-.042969-36.011719-29.222656-65.1914065-65.234375-65.230469zm0 0"
     id="path6"
     style="fill:#e6e6e6" />
  <path
     d="m130.464844 65.277344c0 36.027344-29.203125 65.234375-65.230469 65.234375s-65.234375-29.207031-65.234375-65.234375 29.207031-65.2343752 65.234375-65.2343752 65.230469 29.2070312 65.230469 65.2343752zm0 0"
     id="path8"
     style="fill:#f9f9f9" />
</svg>
