<svg xmlns="http://www.w3.org/2000/svg" height="937.5pt" version="1.1" viewBox="0 0 937.5 937.5" width="937.5pt">
<g id="surface1">
<path d="M 859.375 0 L 203.125 0 C 160 0.0546875 125.054688 35 125 78.125 L 125 328.125 L 156.25 328.125 L 156.25 78.125 C 156.25 52.242188 177.242188 31.25 203.125 31.25 L 859.375 31.25 C 885.257812 31.25 906.25 52.242188 906.25 78.125 L 906.25 562.5 C 906.25 588.382812 885.257812 609.375 859.375 609.375 L 656.25 609.375 L 656.25 640.625 L 859.375 640.625 C 902.5 640.570312 937.445312 605.625 937.5 562.5 L 937.5 78.125 C 937.445312 35 902.5 0.0546875 859.375 0 Z M 859.375 0 " style=" stroke:none;fill-rule:nonzero;fill:rgb(0%,0%,0%);fill-opacity:1;" />
<path d="M 187.5 62.5 L 218.75 62.5 L 218.75 93.75 L 187.5 93.75 Z M 187.5 62.5 " style=" stroke:none;fill-rule:nonzero;fill:rgb(0%,0%,0%);fill-opacity:1;" />
<path d="M 250 62.5 L 281.25 62.5 L 281.25 93.75 L 250 93.75 Z M 250 62.5 " style=" stroke:none;fill-rule:nonzero;fill:rgb(0%,0%,0%);fill-opacity:1;" />
<path d="M 312.5 62.5 L 343.75 62.5 L 343.75 93.75 L 312.5 93.75 Z M 312.5 62.5 " style=" stroke:none;fill-rule:nonzero;fill:rgb(0%,0%,0%);fill-opacity:1;" />
<path d="M 187.5 125 L 875 125 L 875 156.25 L 187.5 156.25 Z M 187.5 125 " style=" stroke:none;fill-rule:nonzero;fill:rgb(0%,0%,0%);fill-opacity:1;" />
<path d="M 187.5 187.5 L 343.75 187.5 L 343.75 218.75 L 187.5 218.75 Z M 187.5 187.5 " style=" stroke:none;fill-rule:nonzero;fill:rgb(0%,0%,0%);fill-opacity:1;" />
<path d="M 187.5 250 L 281.25 250 L 281.25 281.25 L 187.5 281.25 Z M 187.5 250 " style=" stroke:none;fill-rule:nonzero;fill:rgb(0%,0%,0%);fill-opacity:1;" />
<path d="M 453.125 296.875 L 453.125 265.625 C 453.125 256.992188 446.132812 250 437.5 250 L 375 250 C 366.367188 250 359.375 256.992188 359.375 265.625 L 359.375 281.25 L 421.875 281.25 L 421.875 296.875 Z M 453.125 296.875 " style=" stroke:none;fill-rule:nonzero;fill:rgb(0%,0%,0%);fill-opacity:1;" />
<path d="M 578.125 375 L 578.125 218.75 C 578.125 210.117188 571.132812 203.125 562.5 203.125 L 500 203.125 C 491.367188 203.125 484.375 210.117188 484.375 218.75 L 484.375 328.125 L 515.625 328.125 L 515.625 234.375 L 546.875 234.375 L 546.875 375 Z M 578.125 375 " style=" stroke:none;fill-rule:nonzero;fill:rgb(0%,0%,0%);fill-opacity:1;" />
<path d="M 671.875 531.25 L 656.25 531.25 L 656.25 562.5 L 875 562.5 L 875 531.25 L 828.125 531.25 L 828.125 218.75 C 828.125 210.117188 821.132812 203.125 812.5 203.125 L 750 203.125 C 741.367188 203.125 734.375 210.117188 734.375 218.75 L 734.375 531.25 L 703.125 531.25 L 703.125 328.125 C 703.125 319.492188 696.132812 312.5 687.5 312.5 L 625 312.5 C 616.367188 312.5 609.375 319.492188 609.375 328.125 L 609.375 468.75 L 640.625 468.75 L 640.625 343.75 L 671.875 343.75 Z M 765.625 234.375 L 796.875 234.375 L 796.875 531.25 L 765.625 531.25 Z M 765.625 234.375 " style=" stroke:none;fill-rule:nonzero;fill:rgb(0%,0%,0%);fill-opacity:1;" />
<path d="M 312.5 312.5 C 139.902344 312.5 0 452.402344 0 625 C 0 797.597656 139.902344 937.5 312.5 937.5 C 485.097656 937.5 625 797.597656 625 625 C 624.804688 452.492188 485.007812 312.695312 312.5 312.5 Z M 312.5 906.25 C 160.125 906.371094 35.359375 785.132812 31.128906 632.8125 C 26.894531 480.5 144.726562 352.515625 296.875 344.171875 L 296.875 625 C 296.875 625.332031 297.050781 625.625 297.066406 625.972656 C 297.148438 627.347656 297.421875 628.710938 297.875 630.007812 C 297.976562 630.320312 297.875 630.707031 298.09375 631.011719 C 298.195312 631.203125 298.300781 631.386719 298.429688 631.5625 C 299.160156 633.179688 300.148438 634.667969 301.375 635.957031 L 301.464844 636.058594 L 500 834.609375 C 448.546875 880.914062 381.71875 906.445312 312.5 906.25 Z M 522.109375 812.5 L 350.234375 640.625 L 593.328125 640.625 C 589.964844 704.382812 564.824219 765.046875 522.109375 812.5 Z M 328.125 609.375 L 328.125 344.171875 C 471.085938 352.320312 585.179688 466.414062 593.328125 609.375 Z M 328.125 609.375 " style=" stroke:none;fill-rule:nonzero;fill:rgb(0%,0%,0%);fill-opacity:1;" />
</g>
</svg>