<?xml version="1.0" encoding="iso-8859-1"?>
<!-- Generator: Adobe Illustrator 19.0.0, SVG Export Plug-In . SVG Version: 6.00 Build 0)  -->
<svg version="1.1" id="Capa_1" xmlns="http://www.w3.org/2000/svg" xmlns:xlink="http://www.w3.org/1999/xlink" x="0px" y="0px"
	 viewBox="0 0 511.999 511.999" style="enable-background:new 0 0 511.999 511.999;" xml:space="preserve">
<g>
	<g>
		<path d="M256,0C134.684,0,36,96.243,36,215.851c0,68.63,33.021,132.639,88.879,173.334V492c0,7.938,4.694,15.124,11.962,18.313
			c7.225,3.173,15.704,1.809,21.577-3.593l82.144-75.555c5.17,0.355,10.335,0.535,15.438,0.535c121.316,0,220-96.243,220-215.851
			C476,96.13,377.21,0,256,0z M256,391.701c-6.687,0-13.516-0.376-20.298-1.118c-5.737-0.634-11.466,1.253-15.715,5.161
			l-55.108,50.687v-67.726c0-6.741-3.396-13.029-9.034-16.726C105.848,329.2,76,274.573,76,215.851C76,118.886,156.747,40,256,40
			s180,78.886,180,175.851C436,312.814,355.252,391.701,256,391.701z"/>
	</g>
</g>
<g>
	<g>
		<path d="M266,98.877h-70c-11.046,0-20,8.954-20,20c0,11.046,8.954,20,20,20h70c16.542,0,30,13.458,30,30c0,16.542-13.458,30-30,30
			h-20c-11.046,0-20,8.954-20,20v28.793c0,11.046,8.954,20,20,20s20-8.954,20-20v-8.793c38.598,0,70-31.401,70-70
			C336,130.279,304.598,98.877,266,98.877z"/>
	</g>
</g>
<g>
	<g>
		<circle cx="246" cy="319.16" r="27"/>
	</g>
</g>
<g>
</g>
<g>
</g>
<g>
</g>
<g>
</g>
<g>
</g>
<g>
</g>
<g>
</g>
<g>
</g>
<g>
</g>
<g>
</g>
<g>
</g>
<g>
</g>
<g>
</g>
<g>
</g>
<g>
</g>
</svg>
