<?xml version="1.0" encoding="UTF-8" standalone="no"?>
<svg
   xmlns:dc="http://purl.org/dc/elements/1.1/"
   xmlns:cc="http://creativecommons.org/ns#"
   xmlns:rdf="http://www.w3.org/1999/02/22-rdf-syntax-ns#"
   xmlns:svg="http://www.w3.org/2000/svg"
   xmlns="http://www.w3.org/2000/svg"
   xmlns:sodipodi="http://sodipodi.sourceforge.net/DTD/sodipodi-0.dtd"
   xmlns:inkscape="http://www.inkscape.org/namespaces/inkscape"
   version="1.1"
   id="Capa_1"
   x="0px"
   y="0px"
   viewBox="0 0 512.171 512.171"
   style="enable-background:new 0 0 512.171 512.171;"
   xml:space="preserve"
   width="512px"
   height="512px"
   class=""
   inkscape:version="0.91 r13725"
   sodipodi:docname="up-arrow.svg"><metadata
     id="metadata15"><rdf:RDF><cc:Work
         rdf:about=""><dc:format>image/svg+xml</dc:format><dc:type
           rdf:resource="http://purl.org/dc/dcmitype/StillImage" /></cc:Work></rdf:RDF></metadata><defs
     id="defs13" /><sodipodi:namedview
     pagecolor="#ffffff"
     bordercolor="#666666"
     borderopacity="1"
     objecttolerance="10"
     gridtolerance="10"
     guidetolerance="10"
     inkscape:pageopacity="0"
     inkscape:pageshadow="2"
     inkscape:window-width="1871"
     inkscape:window-height="1056"
     id="namedview11"
     showgrid="false"
     inkscape:zoom="0.4609375"
     inkscape:cx="256"
     inkscape:cy="256"
     inkscape:window-x="49"
     inkscape:window-y="24"
     inkscape:window-maximized="1"
     inkscape:current-layer="Capa_1" /><g
     transform="matrix(-0.37707976,0,0,-0.37707976,352.65035,352.64986)"
     id="g3"><g
       id="g5"><g
         id="g7"><path
           d="m 479.046,283.925 c -1.664,-3.989 -5.547,-6.592 -9.856,-6.592 l -116.885,0 0,-266.666 C 352.305,4.779 347.526,0 341.638,0 L 170.971,0 c -5.888,0 -10.667,4.779 -10.667,10.667 l 0,266.667 -117.333,0 c -4.309,0 -8.192,2.603 -9.856,6.571 -1.643,3.989 -0.747,8.576 2.304,11.627 l 212.8,213.504 c 2.005,2.005 4.715,3.136 7.552,3.136 2.837,0 5.547,-1.131 7.552,-3.115 L 476.742,295.553 c 3.051,-3.052 3.968,-7.638 2.304,-11.628 z"
           data-original="#000000"
           class="active-path"
           data-old_color="#686464"
           id="path9"
           inkscape:connector-curvature="0"
           style="fill:#676262" /></g></g></g></svg>